<?xml version="1.0" encoding="utf-8"?>
<svg viewBox="0 0 240.00000000000003 217" xmlns="http://www.w3.org/2000/svg">
  <g id="SvgjsG1007" featurekey="rootContainer" fill="#236c93">
    <rect y="0" height="1" width="1" opacity="0"/>
    <rect y="212" width="240" height="5"/>
  </g>
  <g id="SvgjsG1008" featurekey="symbolFeature-0" transform="matrix(1.259212, 0, 0, 1.259212, 55.518539, -10.263807)" fill="#236c93">
    <g xmlns="http://www.w3.org/2000/svg">
      <path d="M53.375,82.4c7.08-0.168,14.621-1.085,18.721-2.312c-6.094,0.769-11.572,1.175-16.451,1.292   C23.84,82.132,17.214,70.553,28.913,66.662c-6.007,1.573-10.778,5.009-7.99,8.371c3.328,4.018,15.247,7.013,27.88,7.366   C50.276,82.438,51.813,82.438,53.375,82.4z"/>
      <path d="M36.022,62.207c2.034,8.295,9.691,14.364,18.824,14.197c10.684-0.225,19.316-8.86,19.312-19.31   c-0.021-10.461-17.638-26.451-19.433-43.384c-1.729,17.001-19.281,33.675-19.251,44.134c0,1.132,0.123,2.234,0.319,3.309   c-11.323,0.804-20.919,3.722-23.564,6.932c-1.752,2.136-0.223,4.835,3.287,6.216C9.588,66.983,22.42,63.244,36.022,62.207z"/>
      <path d="M81.883,69.853c11.836,3.466,5.629,15.278-26.181,15.67c-4.884,0.058-10.372-0.152-16.488-0.704   c4.142,1.081,11.71,1.729,18.794,1.643c1.559-0.021,3.097-0.076,4.566-0.168c12.611-0.805,24.417-4.229,27.595-8.362   C92.838,74.47,87.943,71.209,81.883,69.853z"/>
    </g>
  </g>
  <g id="SvgjsG1009" featurekey="nameFeature-0" transform="matrix(2.123894, 0, 0, 2.123894, -0.849557, 113.858406)" fill="#236c93">
    <path d="M0.4 11.600000000000001 l0 -3.6 l12 0 l0 3.6 l-4 0 l0 28.4 l-4 0 l0 -28.4 l-4 0 z M17.3 40 l0 -32 l6.48 0 c4.12 0 5.52 2.52 5.52 7.36 c0 4.36 -0.52 6.84 -1.76 8.04 l0 0.24 c1.04 0.36 1.36 2.24 1.76 6.92 l0.8 9.44 l-4 0 l-0.52 -9.44 c-0.28 -4.76 -1 -5.76 -2.2 -5.76 l-2.08 0 l0 15.2 l-4 0 z M21.3 21.6 l2.48 0 c1.4 0 1.8 -1.4 1.8 -6.24 c0 -3.16 -0.6 -4.16 -1.8 -4.16 l-2.48 0 l0 10.4 z M35.8 40 l0 -32 l9.2 0 l0 3.2 l-5.2 0 l0 10.4 l4.4 0 l0 3.2 l-4.4 0 l0 11.2 l5.2 0 l0 4 l-9.2 0 z M50.3 40 l0 -16.8 c0 -11.16 0 -15.56 6 -15.56 s6 4.4 6 15.56 l0 16.8 l-4 0 l0 -9.2 l-4 0 l0 9.2 l-4 0 z M54.3 27.6 l4 0 l0 -4.4 c0 -10.4 0 -12.36 -2 -12.36 s-2 1.96 -2 12.36 l0 4.4 z M67.2 11.600000000000001 l0 -3.6 l12 0 l0 3.6 l-4 0 l0 28.4 l-4 0 l0 -28.4 l-4 0 z M83.89999999999999 23.16 l0 -15.16 l4 0 l0 15.16 c0 11.56 0 13.24 2 13.24 s2 -1.68 2 -13.24 l0 -15.16 l4 0 l0 15.16 c0 12.8 0 17.24 -6 17.24 s-6 -4.44 -6 -17.24 z M101.39999999999999 30.240000000000002 l4.04 0 c0.08 5.16 0.48 6.16 1.92 6.16 c1.96 0 1.96 -1.64 1.96 -6 c0 -6.4 -7.92 -4.68 -7.92 -13.2 c0 -5 0 -9.6 6 -9.6 c4.44 0 5.64 2.52 5.92 8.56 l-4 0 c-0.16 -4.36 -0.64 -5.36 -1.92 -5.36 c-1.96 0 -1.96 2.16 -1.96 6.4 c0 6.2 7.96 4 7.96 13.2 c0 5.6 0 10 -6.04 10 c-4.64 0 -5.72 -2.76 -5.96 -10.16 z"/>
  </g>
</svg>